<svg xmlns="http://www.w3.org/2000/svg" viewBox="0 0 30.14 30.28"><defs><style>.cls-1{fill:#3b82f6;}</style></defs><g id="Capa_2" data-name="Capa 2"><g id="Capa_1-2" data-name="Capa 1"><path class="cls-1" d="M17.63,12.07a5.26,5.26,0,0,0,.61.64,2.46,2.46,0,0,0,.38.41c.56.6,1.11,1.21,1.67,1.82,1.11,1.19,2.24,2.39,3.35,3.59.13.15.21.14.34,0l1.34-1.31a.62.62,0,0,1,1,0l1.49,1.54a.58.58,0,0,1,0,.91c-.88.88-1.76,1.76-2.65,2.63-.15.15-.17.23,0,.39.8.8,1.58,1.61,2.36,2.42a.48.48,0,0,0,.38.13,2.49,2.49,0,0,1,2.19,3,2.54,2.54,0,0,1-2.26,2,2.51,2.51,0,0,1-2.59-1.76,2.19,2.19,0,0,1-.11-.63.55.55,0,0,0-.19-.4c-.75-.78-1.51-1.56-2.26-2.35-.15-.15-.24-.16-.39,0l-2.41,2.41c-.42.41-.68.42-1.09,0L17.33,26a.62.62,0,0,1,0-1c.39-.39.78-.79,1.19-1.15.19-.18.18-.28,0-.47-.85-.89-1.68-1.81-2.52-2.71l-2.76-3-.21-.21a4.18,4.18,0,0,0-.5-.53,6,6,0,0,0-.69-.74l-.2-.21c-.32-.42-.7-.77-1.05-1.15L2.94,6.7a3.83,3.83,0,0,0-.28-.29A1.11,1.11,0,0,1,2.3,5.7C2.06,4.08,1.83,2.46,1.58.84c-.12-.7.31-.92.87-.78,1.44.36,2.88.7,4.33,1A2.12,2.12,0,0,1,8,1.76c2.81,3,5.64,6.05,8.46,9.07.31.34.63.67.95,1A.73.73,0,0,0,17.63,12.07ZM4.7,4A.54.54,0,0,1,5,3.5a.57.57,0,0,1,.66.13L6.84,4.86q4.77,5.1,9.53,10.19c1.16,1.24,2.3,2.48,3.45,3.72.57.61,1.15,1.22,1.72,1.84.12.13.19.11.31,0,.3-.31.61-.62.93-.91.17-.14.14-.22,0-.36-1.37-1.46-2.73-2.93-4.09-4.39L13.43,9.3,7.1,2.5a.81.81,0,0,0-.39-.23C5.5,2,4.29,1.71,3.08,1.43c-.24-.06-.25-.05-.21.2.21,1.17.36,2.34.52,3.52a1.24,1.24,0,0,0,.34.72c.82.86,1.62,1.72,2.43,2.59L13.26,16l4.2,4.53,2,2.12c.13.14.2.14.33,0,.28-.29.57-.57.86-.85s.25-.25,0-.51l-3.44-3.69q-4.44-4.77-8.9-9.53L4.92,4.51A.66.66,0,0,1,4.7,4ZM25.8,18.39l-.15.13-3.12,3.07L18.7,25.37c-.14.13-.16.22,0,.35a4.89,4.89,0,0,1,.44.47c.14.18.24.19.41,0,.77-.78,1.56-1.55,2.34-2.31q2.3-2.26,4.61-4.51c.07-.07.14-.13,0-.24s-.41-.44-.62-.67Zm1.83,10.7A1.34,1.34,0,0,0,29,27.78a1.32,1.32,0,0,0-1.32-1.37,1.34,1.34,0,0,0-1.35,1.31A1.32,1.32,0,0,0,27.63,29.09Zm-2.14-2.71a2.55,2.55,0,0,1,.65-.66c.2-.11.16-.2,0-.33-.57-.57-1.13-1.16-1.69-1.73-.32-.34-.33-.33-.65,0l-.26.24c-.24.24-.24.25,0,.51l.38.39Z"/><path class="cls-1" d="M10.49,18.55c.27-.28.56-.55.82-.85s.27-.24.42,0c0,0,0,0,.07.06a1.42,1.42,0,0,0,.3.3c.21.27.21.27,0,.53s-.58.63-.86.95a.47.47,0,0,0-.18.19c-.55.54-1.07,1.11-1.59,1.68-.13.14-.13.24,0,.37s.24.22.36.33a2.52,2.52,0,0,0,.4.4c.28.35.28.35.57,0l.52-.57a.24.24,0,0,0,.11-.13,11.16,11.16,0,0,0,1-1.05,1,1,0,0,0,.26-.27c.24-.24.49-.49.72-.74s.15-.11.25,0a6.14,6.14,0,0,0,.51.51c.15.12.14.21,0,.35-.89.93-1.76,1.87-2.65,2.8-.16.16-.15.25,0,.4.43.4.83.8,1.24,1.21a.6.6,0,0,1,0,1c-.5.51-1,1-1.51,1.54s-.63.38-1,0c-.81-.81-1.63-1.61-2.43-2.42-.16-.16-.25-.19-.42,0-.75.78-1.51,1.56-2.27,2.33A.44.44,0,0,0,5,27.8,2.38,2.38,0,0,1,3.5,30.06a2.37,2.37,0,0,1-2.67-.45,2.4,2.4,0,0,1-.68-2.68,2.39,2.39,0,0,1,2.14-1.69.59.59,0,0,0,.38-.18c.77-.8,1.55-1.6,2.33-2.39.12-.13.14-.19,0-.33-.9-.86-1.79-1.74-2.69-2.62a.62.62,0,0,1,0-.92l1.58-1.63a.6.6,0,0,1,.9,0c.47.45.94.9,1.39,1.37.13.13.19.11.31,0,1-1,1.92-2,2.88-3,.14-.16.22-.17.36,0a4.52,4.52,0,0,0,.48.5c.11.11.12.2,0,.31a.55.55,0,0,0-.19.21c-.62.62-1.23,1.27-1.82,1.93a2.19,2.19,0,0,0-.46.5,2,2,0,0,0-.41.42c-.15.09-.16.19,0,.29l.15.13a3.65,3.65,0,0,0,.6.58l.29.3c.06.07.12.09.17,0a2,2,0,0,0,.4-.42,6,6,0,0,0,.49-.52,7.46,7.46,0,0,0,.72-.77A2,2,0,0,0,10.49,18.55Zm-6.15-.12c-.08,0-.11.06-.15.1s-.31.35-.48.5-.17.25,0,.42C4.88,20.58,6,21.73,7.18,22.86l3.44,3.41c.13.13.18.11.29,0a6.38,6.38,0,0,1,.51-.53c.15-.13.17-.22,0-.37-.34-.31-.67-.63-1-1L4.48,18.55Zm-.49,9.35a1.34,1.34,0,1,0-2.67-.06,1.34,1.34,0,0,0,1.28,1.37A1.33,1.33,0,0,0,3.85,27.78ZM6.8,24.14a.24.24,0,0,0-.06-.08l-.69-.67c-.1-.09-.14,0-.2.05-.65.67-1.29,1.34-1.94,2-.1.1-.11.16,0,.24a2,2,0,0,1,.57.54c.1.13.16.09.25,0l2-2Z"/><path class="cls-1" d="M16.67,9.2c-.11.12-.21.12-.32,0s-.31-.34-.47-.5-.14-.22,0-.36c.65-.67,1.3-1.35,1.94-2,1.5-1.6,3-3.19,4.5-4.79a1,1,0,0,1,.55-.32C24.52.82,26.17.42,27.82,0c.47-.11.79.21.72.71-.13.92-.27,1.84-.41,2.76-.1.72-.21,1.44-.3,2.15a1.38,1.38,0,0,1-.39.78q-3.28,3.44-6.55,6.89c-.34.37-.35.36-.67,0L20,13.1c-.26-.27-.26-.27,0-.56a1.57,1.57,0,0,0,.31-.32,7.46,7.46,0,0,0,.72-.77,1.93,1.93,0,0,0,.39-.42,12.55,12.55,0,0,0,1.07-1.12.39.39,0,0,0,.15-.16c.36-.34.7-.71,1-1.09a2,2,0,0,0,.42-.44,11.43,11.43,0,0,0,1-1.07,7.55,7.55,0,0,0,.68-.71,6.27,6.27,0,0,0,.82-.89,3.68,3.68,0,0,0,.18-1c.09-.46.15-.92.2-1.38a6.1,6.1,0,0,0,.13-.84c0-.26.08-.51.13-.76s0-.22-.17-.17-.53.14-.79.21l-.05,0h0a7.94,7.94,0,0,0-1,.24l-1,.22-.08,0h-.07a5.45,5.45,0,0,0-.89.2,4,4,0,0,0-.74.75l0,0Q21.53,4,20.67,5a1.42,1.42,0,0,0-.33.36,9.45,9.45,0,0,0-.93,1,2.14,2.14,0,0,0-.36.38,12.13,12.13,0,0,0-.92,1,2.73,2.73,0,0,0-.47.49,6,6,0,0,0-.7.72A1.42,1.42,0,0,0,16.67,9.2Z"/><path class="cls-1" d="M18.8,11.24c-.14.13-.27.29-.45,0s-.3-.31-.44-.47,0-.31.06-.45a1.1,1.1,0,0,0,.26-.27,4,4,0,0,0,.6-.63A3.19,3.19,0,0,0,19.27,9a13.27,13.27,0,0,0,1-1.09,1,1,0,0,0,.27-.3,9.63,9.63,0,0,0,.89-.92A6.54,6.54,0,0,0,22,6.09a11.14,11.14,0,0,0,.89-.93,10.71,10.71,0,0,0,.81-.84,9.16,9.16,0,0,0,.68-.71.59.59,0,0,1,.95.18.63.63,0,0,1-.16.72,4.64,4.64,0,0,0-.65.68,8.62,8.62,0,0,0-.73.75,9.33,9.33,0,0,0-.75.79l-.05,0-.74.79-.05,0h0l-.05,0a.17.17,0,0,0-.1.1l0,.05c-.63.64-1.25,1.28-1.84,2a5.67,5.67,0,0,0-.59.61,3.78,3.78,0,0,0-.55.58A1.11,1.11,0,0,0,18.8,11.24Z"/><path class="cls-1" d="M22.18,7.67l.05,0Z"/><path class="cls-1" d="M22.44,3.13l0,0Z"/><path class="cls-1" d="M24.18,2.13l.08,0Z"/><path class="cls-1" d="M22.23,7.62l.05,0Z"/><path class="cls-1" d="M23,6.78l.05,0Z"/><path class="cls-1" d="M22,7.82l0-.05Z"/><path class="cls-1" d="M26.23,1.64l.05,0Z"/></g></g></svg>